<svg xmlns="http://www.w3.org/2000/svg" width="960" height="500" viewBox="0 0 960 500" role="img" aria-labelledby="title desc">
  <title id="title">프로젝트 계획과 산정</title><desc id="desc">범위·비용·일정은 순서와 근거를 갖고 연결됩니다.</desc>
  <defs><linearGradient id="bg" x1="0" y1="0" x2="1" y2="1"><stop stop-color="#071126"/><stop offset="1" stop-color="#0f172a"/></linearGradient><marker id="arrow" markerWidth="10" markerHeight="10" refX="9" refY="3" orient="auto" markerUnits="strokeWidth"><path d="M0,0 L0,6 L9,3 z" fill="#7dd3fc"/></marker></defs>
  <style>.title{fill:#f8fafc;font:700 30px system-ui,sans-serif}.subtitle{fill:#94a3b8;font:16px system-ui,sans-serif}.heading{fill:#e2e8f0;font:700 18px system-ui,sans-serif}.detail{fill:#a5b4c7;font:14px system-ui,sans-serif}.arrow{stroke:#7dd3fc;stroke-width:2.5;fill:none}.link{fill:#67e8f9;font:13px system-ui,sans-serif;text-anchor:middle}.footer{fill:#93c5fd;font:14px system-ui,sans-serif}</style>
  <rect width="960" height="500" rx="28" fill="url(#bg)"/><text x="42" y="55" class="title">프로젝트 계획과 산정</text><text x="42" y="84" class="subtitle">범위·비용·일정은 순서와 근거를 갖고 연결됩니다.</text>
  <path d="M200 195 L225 195" class="arrow" marker-end="url(#arrow)"/><path d="M390 195 L415 195" class="arrow" marker-end="url(#arrow)"/><path d="M580 195 L605 195" class="arrow" marker-end="url(#arrow)"/><path d="M750 195 L775 195" class="arrow" marker-end="url(#arrow)"/><path d="M850 245 L765 315" class="arrow" marker-end="url(#arrow)"/><text x="807.5" y="272.0" class="link">분석</text><g><rect x="35" y="145" width="165" height="100" rx="18" fill="#111c35" stroke="#2563eb" stroke-width="2"/><rect x="35" y="145" width="8" height="100" rx="4" fill="#2563eb"/><text x="59" y="180" class="heading">문제 정의</text><text class="detail"><tspan x="59" y="210">목표·범위</tspan></text></g><g><rect x="225" y="145" width="165" height="100" rx="18" fill="#111c35" stroke="#7c3aed" stroke-width="2"/><rect x="225" y="145" width="8" height="100" rx="4" fill="#7c3aed"/><text x="249" y="180" class="heading">타당성</text><text class="detail"><tspan x="249" y="210">경제·기술·법</tspan></text></g><g><rect x="415" y="145" width="165" height="100" rx="18" fill="#111c35" stroke="#0891b2" stroke-width="2"/><rect x="415" y="145" width="8" height="100" rx="4" fill="#0891b2"/><text x="439" y="180" class="heading">규모·노력</text><text class="detail"><tspan x="439" y="210">LOC·COCOMO</tspan></text></g><g><rect x="605" y="145" width="145" height="100" rx="18" fill="#111c35" stroke="#059669" stroke-width="2"/><rect x="605" y="145" width="8" height="100" rx="4" fill="#059669"/><text x="629" y="180" class="heading">WBS</text><text class="detail"><tspan x="629" y="210">작업 분해</tspan></text></g><g><rect x="775" y="145" width="150" height="100" rx="18" fill="#111c35" stroke="#d97706" stroke-width="2"/><rect x="775" y="145" width="8" height="100" rx="4" fill="#d97706"/><text x="799" y="180" class="heading">일정</text><text class="detail"><tspan x="799" y="210">Gantt·PERT</tspan></text></g><g><rect x="605" y="315" width="320" height="90" rx="18" fill="#111c35" stroke="#dc2626" stroke-width="2"/><rect x="605" y="315" width="8" height="90" rx="4" fill="#dc2626"/><text x="629" y="350" class="heading">임계 경로</text><text class="detail"><tspan x="629" y="380">기간 합 최대·여유 시간 0</tspan></text></g>
  <text x="42" y="470" class="footer">핵심 흐름과 구별 기준을 함께 확인하세요.</text>
</svg>